HIERARCHY
ROOT Hips
{
 OFFSET 0.000000 0.000000 0.000000
 CHANNELS 6 Xposition Yposition Zposition Yrotation Xrotation Zrotation
 JOINT Chest
 {
  OFFSET 0.000000 12.953391 -0.028419
  CHANNELS 3 Yrotation Xrotation Zrotation
  JOINT Chest2
  {
   OFFSET 0.000000 10.280254 0.051622
   CHANNELS 3 Yrotation Xrotation Zrotation
   JOINT Chest3
   {
    OFFSET 0.000000 9.287180 0.000000
    CHANNELS 3 Yrotation Xrotation Zrotation
    JOINT Chest4
    {
     OFFSET 0.000000 9.287180 0.000000
     CHANNELS 3 Yrotation Xrotation Zrotation
     JOINT Neck
     {
      OFFSET 0.000000 13.296264 0.000000
      CHANNELS 3 Yrotation Xrotation Zrotation
      JOINT Head
      {
       OFFSET 0.000000 8.959264 0.099003
       CHANNELS 3 Yrotation Xrotation Zrotation
       End Site
       {
        OFFSET 0.000000 17.121337 0.039303
       }
      }
     }
     JOINT RightCollar
     {
      OFFSET -3.193511 7.451388 0.000000
      CHANNELS 3 Yrotation Xrotation Zrotation
      JOINT RightShoulder
      {
       OFFSET -15.792092 0.000000 0.000000
       CHANNELS 3 Yrotation Xrotation Zrotation
       JOINT RightElbow
       {
        OFFSET -31.151839 0.000000 0.000000
        CHANNELS 3 Yrotation Xrotation Zrotation
        JOINT RightWrist
        {
         OFFSET -25.536298 0.000000 0.002321
         CHANNELS 3 Yrotation Xrotation Zrotation
         End Site
         {
          OFFSET -19.133213 0.000000 0.000000
         }
        }
       }
      }
     }
     JOINT LeftCollar
     {
      OFFSET 3.193511 7.451388 0.000000
      CHANNELS 3 Yrotation Xrotation Zrotation
      JOINT LeftShoulder
      {
       OFFSET 15.792092 0.000000 0.000000
       CHANNELS 3 Yrotation Xrotation Zrotation
       JOINT LeftElbow
       {
        OFFSET 31.151839 0.000000 0.000000
        CHANNELS 3 Yrotation Xrotation Zrotation
        JOINT LeftWrist
        {
         OFFSET 25.536298 0.000000 0.002321
         CHANNELS 3 Yrotation Xrotation Zrotation
         End Site
         {
          OFFSET 19.133213 0.000000 0.000000
         }
        }
       }
      }
     }
    }
   }
  }
 }
 JOINT RightHip
 {
  OFFSET -10.745749 0.139252 0.014209
  CHANNELS 3 Yrotation Xrotation Zrotation
  JOINT RightKnee
  {
   OFFSET 0.000000 -43.743899 -0.006071
   CHANNELS 3 Yrotation Xrotation Zrotation
   JOINT RightAnkle
   {
    OFFSET 0.000000 -43.214199 0.089931
    CHANNELS 3 Yrotation Xrotation Zrotation
    JOINT RightToe
    {
     OFFSET 0.000000 -9.699830 19.151588
     CHANNELS 3 Yrotation Xrotation Zrotation
     End Site
     {
      OFFSET 0.000000 -1.292898 4.893873
     }
    }
   }
  }
 }
 JOINT LeftHip
 {
  OFFSET 10.745749 0.139252 0.014209
  CHANNELS 3 Yrotation Xrotation Zrotation
  JOINT LeftKnee
  {
   OFFSET 0.000000 -43.743899 -0.006071
   CHANNELS 3 Yrotation Xrotation Zrotation
   JOINT LeftAnkle
   {
    OFFSET 0.000000 -43.214199 0.089931
    CHANNELS 3 Yrotation Xrotation Zrotation
    JOINT LeftToe
    {
     OFFSET 0.000000 -9.699830 19.151588
     CHANNELS 3 Yrotation Xrotation Zrotation
     End Site
     {
      OFFSET 0.000000 -1.292898 4.893873
     }
    }
   }
  }
 }
}
MOTION
Frames: 10
Frame Time: 0.016667
42.196133 98.157012 288.285559 89.369269 -13.551866 -0.185038 -1.793541 8.499775 3.522706 -0.859550 3.764025 1.594143 -0.859550 3.764025 1.594143 -0.654266 2.820807 1.200481 -10.540778 28.941696 1.714623 -19.045135 18.345398 4.971397 6.427819 7.176373 7.849889 6.391604 -20.092111 79.096306 -3.136193 13.079468 -12.782921 0.491479 23.004114 -45.592682 -2.333970 2.264628 -6.462864 -8.746585 -8.034379 -84.381561 -6.064196 -6.513965 -0.888534 8.626703 0.971406 12.550814 -5.009298 16.807168 7.172786 -1.124351 1.684519 -0.674990 -18.165101 -5.717629 -3.628751 -0.000000 -0.000000 0.000000 33.971331 2.799141 17.884836 2.367899 11.177619 -0.160580 9.586196 3.692169 -5.415133 0.000000 0.000000 0.000000
42.199897 98.125225 288.247732 89.367412 -13.451067 -0.123971 -1.788478 8.466585 3.472184 -0.856145 3.749509 1.571565 -0.856145 3.749510 1.571564 -0.651538 2.809962 1.183514 -10.557173 28.933885 1.710531 -19.073887 18.332310 4.968015 6.377151 7.177694 7.921404 6.420033 -20.028721 78.847946 -3.080846 13.082623 -12.676370 0.554053 22.991844 -45.522751 -2.454777 2.272601 -6.444276 -8.718900 -8.125619 -84.194002 -6.072350 -6.546522 -0.930159 8.673914 0.981262 12.492549 -4.936965 16.713194 7.141823 -1.353355 1.694772 -0.704842 -17.987658 -5.722825 -3.570273 0.000000 0.000000 0.000000 33.616025 2.763070 17.630450 2.922926 11.348487 0.162834 9.405637 3.459391 -5.636619 0.000000 0.000000 0.000000
42.203662 98.093438 288.209904 89.365665 -13.350266 -0.062934 -1.783446 8.433410 3.421642 -0.852762 3.734998 1.548978 -0.852762 3.734999 1.548977 -0.648828 2.799117 1.166542 -10.573575 28.926090 1.706447 -19.102648 18.319247 4.964643 6.326537 7.179125 7.992957 6.448024 -19.965450 78.599689 -3.025522 13.085726 -12.569807 0.616590 22.979541 -45.452820 -2.575563 2.280741 -6.425645 -8.691467 -8.216642 -84.006310 -6.080475 -6.579153 -0.971732 8.721062 0.991155 12.434247 -4.864630 16.619331 7.110598 -1.582374 1.704959 -0.734633 -17.810192 -5.728170 -3.511873 0.000000 0.000000 -0.000000 33.260756 2.724782 17.376605 3.479129 11.516990 0.487857 9.226419 3.226169 -5.857906 0.000000 0.000000 0.000000
42.204952 98.066370 288.167746 89.381125 -13.251885 -0.011666 -1.785435 8.406941 3.377315 -0.852656 3.723390 1.529292 -0.852656 3.723390 1.529292 -0.648600 2.790437 1.151769 -10.583741 28.916861 1.704960 -19.120866 18.303210 4.964994 6.277886 7.170104 8.061565 6.478033 -19.902270 78.358897 -2.969375 13.059274 -12.472453 0.687637 22.989203 -45.386706 -2.691278 2.279018 -6.409478 -8.654147 -8.297643 -83.826399 -6.107698 -6.597517 -1.016352 8.764107 1.006797 12.375517 -4.801891 16.527120 7.076048 -1.820326 1.705457 -0.757327 -17.629985 -5.738416 -3.458479 0.000000 0.000000 0.000000 32.938137 2.678729 17.132940 3.968434 11.677637 0.785872 9.064867 3.015435 -6.046103 -0.000000 0.000000 0.000000
42.202459 98.045206 288.122350 89.414458 -13.155991 0.021718 -1.795616 8.389152 3.343553 -0.856435 3.715542 1.514461 -0.856435 3.715543 1.514461 -0.651325 2.784562 1.140663 -10.583126 28.906701 1.707908 -19.120788 18.284890 4.971481 6.232126 7.141405 8.126242 6.522062 -19.832206 78.127241 -2.914184 12.977349 -12.388275 0.772067 23.036686 -45.327739 -2.799647 2.256079 -6.395397 -8.593125 -8.359284 -83.659515 -6.159063 -6.590597 -1.068253 8.800774 1.032905 12.315768 -4.737987 16.432710 7.044063 -2.080960 1.694905 -0.767625 -17.441622 -5.760038 -3.413548 -0.000000 -0.000000 0.000000 32.675289 2.620733 16.908349 4.362789 11.827067 1.047867 8.919221 2.837380 -6.195924 -0.000000 0.000000 0.000000
42.197491 98.028760 288.072623 89.464908 -13.062540 0.045436 -1.812819 8.378061 3.316042 -0.863487 3.710598 1.502547 -0.863487 3.710599 1.502547 -0.656528 2.780854 1.131768 -10.576278 28.895086 1.713439 -19.110179 18.263566 4.981675 6.188305 7.102217 8.188028 6.568104 -19.762142 77.903057 -2.858652 12.865847 -12.313266 0.865198 23.106050 -45.272450 -2.902978 2.223206 -6.383639 -8.522013 -8.411107 -83.500571 -6.229652 -6.569572 -1.123240 8.833284 1.064700 12.255567 -4.683718 16.339934 7.008744 -2.350522 1.674905 -0.770757 -17.250589 -5.786549 -3.373507 -0.000000 -0.000000 0.000000 32.445169 2.556199 16.693822 4.689946 11.969758 1.282013 8.790291 2.682054 -6.312634 0.000000 -0.000000 -0.000000
42.191503 98.018199 288.010954 89.547417 -12.973821 0.074316 -1.840540 8.374423 3.288047 -0.875243 3.708893 1.490629 -0.875243 3.708893 1.490629 -0.665265 2.779563 1.122902 -10.570596 28.879028 1.718613 -19.101775 18.234131 4.992042 6.145546 7.069569 8.246980 6.582651 -19.712996 77.688663 -2.797250 12.772947 -12.244680 0.961219 23.171584 -45.214476 -3.003081 2.204285 -6.377629 -8.471745 -8.471619 -83.342014 -6.323631 -6.553454 -1.171706 8.864351 1.093637 12.196263 -4.680959 16.261875 6.949574 -2.596673 1.640284 -0.775371 -17.070533 -5.803277 -3.332687 0.000000 -0.000000 0.000000 32.199201 2.493986 16.472094 4.965407 12.112523 1.485204 8.697844 2.542355 -6.379245 0.000000 0.000000 0.000000
42.186904 98.014883 287.935432 89.672560 -12.895749 0.112907 -1.885604 8.380799 3.256188 -0.894682 3.711536 1.477343 -0.894682 3.711535 1.477342 -0.679765 2.781516 1.113062 -10.567280 28.857741 1.723253 -19.097736 18.195258 5.002583 6.102062 7.053260 8.304988 6.544239 -19.700391 77.490864 -2.725306 12.741673 -12.184670 1.053980 23.219988 -45.149716 -3.101493 2.214233 -6.378386 -8.459563 -8.550688 -83.180994 -6.442868 -6.552084 -1.208241 8.894941 1.112675 12.137166 -4.757208 16.213123 6.857217 -2.798962 1.584693 -0.785187 -16.907994 -5.805447 -3.287453 0.000000 -0.000000 0.000000 31.920470 2.443751 16.241707 5.181933 12.251185 1.647364 8.657000 2.420507 -6.373040 0.000000 -0.000000 0.000000
42.181284 98.017452 287.847967 89.829753 -12.822507 0.156778 -1.941209 8.394608 3.223918 -0.918832 3.717420 1.464092 -0.918832 3.717420 1.464092 -0.697803 2.785891 1.103282 -10.565142 28.832012 1.727527 -19.095939 18.148282 5.013292 6.059726 7.043440 8.360174 6.474415 -19.709117 77.302995 -2.647099 12.728919 -12.131013 1.149559 23.264553 -45.082263 -3.196666 2.238074 -6.384913 -8.468128 -8.638309 -83.020241 -6.585446 -6.555669 -1.238094 8.924112 1.128836 12.078974 -4.884941 16.178923 6.741422 -2.977886 1.514452 -0.796287 -16.756411 -5.797854 -3.241373 0.000000 0.000000 0.000000 31.625968 2.395708 16.003900 5.346476 12.390792 1.778114 8.652247 2.314474 -6.316946 0.000000 0.000000 0.000000
42.168866 98.022988 287.746683 90.002249 -12.738825 0.207323 -1.990415 8.408913 3.194733 -0.940202 3.723564 1.452097 -0.940202 3.723564 1.452097 -0.713766 2.790466 1.094428 -10.568002 28.801229 1.729022 -19.102727 18.092125 5.020637 6.023143 7.027617 8.406909 6.404073 -19.713730 77.107094 -2.570702 12.653702 -12.074461 1.260455 23.319455 -45.018035 -3.285791 2.254851 -6.397618 -8.476527 -8.723278 -82.860676 -6.749780 -6.553802 -1.267737 8.951755 1.154681 12.025129 -5.023380 16.128436 6.610375 -3.162518 1.443338 -0.805887 -16.609739 -5.780203 -3.199601 0.000000 0.000000 0.000000 31.318132 2.328916 15.745677 5.496081 12.551692 1.904206 8.657585 2.210752 -6.262456 0.000000 0.000000 0.000000
